REM DIRINDEX 1\2\4\8,1\2\4\9,1\2\4\10,1\2\5\11,1\2\5\12,1\2\5\13,1\2\5\14,1\2\5\15,1\3\6\16,1\3\6\17,1\3\6\18,1\3\7\19,1\3\7\20,1\3\7\21,1\3\7\22,1\3\7\23
REM DIRNAME "folder01","folder02","folder03","folder04","folder05","folder06","folder07","folder08","folder09","folder10","folder11","folder12","folder13","folder14","folder15","folder16","folder17","folder18","folder19","folder20","folder21","folder22","folder23"
TITLE ""
FILE "LR_black_phrase_01.mp3" MP3
  TRACK 01 AUDIO
    TITLE "0:"
    INDEX 01 00:00:00
  TRACK 02 AUDIO
    TITLE "11:cjc171_03001"
    INDEX 01 00:00:08
  TRACK 03 AUDIO
    TITLE "0:"
    INDEX 01 00:01:25
  TRACK 04 AUDIO
    TITLE "12:cjc171_03002"
    INDEX 01 00:01:65
  TRACK 05 AUDIO
    TITLE "0:"
    INDEX 01 00:04:32
  TRACK 06 AUDIO
    TITLE "13:cjc171_03003"
    INDEX 01 00:05:33
  TRACK 07 AUDIO
    TITLE "0:"
    INDEX 01 00:07:38
  TRACK 08 AUDIO
    TITLE "14:cjc171_03004"
    INDEX 01 00:07:75
  TRACK 09 AUDIO
    TITLE "0:"
    INDEX 01 00:09:74
  TRACK 10 AUDIO
    TITLE "15:cjc171_03005"
    INDEX 01 00:10:30
  TRACK 11 AUDIO
    TITLE "0:"
    INDEX 01 00:12:29
  TRACK 12 AUDIO
    TITLE "11:cjc171_03006"
    INDEX 01 00:13:27
  TRACK 13 AUDIO
    TITLE "0:"
    INDEX 01 00:14:61
  TRACK 14 AUDIO
    TITLE "12:cjc171_03007"
    INDEX 01 00:15:27
  TRACK 15 AUDIO
    TITLE "0:"
    INDEX 01 00:17:32
  TRACK 16 AUDIO
    TITLE "13:cjc171_03008"
    INDEX 01 00:18:32
  TRACK 17 AUDIO
    TITLE "0:"
    INDEX 01 00:20:27
  TRACK 18 AUDIO
    TITLE "14:cjc171_03009"
    INDEX 01 00:20:68
  TRACK 19 AUDIO
    TITLE "0:"
    INDEX 01 00:23:25
  TRACK 20 AUDIO
    TITLE "15:cjc171_03010"
    INDEX 01 00:23:54
  TRACK 21 AUDIO
    TITLE "0:"
    INDEX 01 00:26:14
  TRACK 22 AUDIO
    TITLE "11:cjc171_03011"
    INDEX 01 00:27:17
  TRACK 23 AUDIO
    TITLE "0:"
    INDEX 01 00:28:54
  TRACK 24 AUDIO
    TITLE "12:cjc171_03012"
    INDEX 01 00:29:14
  TRACK 25 AUDIO
    TITLE "0:"
    INDEX 01 00:31:42
  TRACK 26 AUDIO
    TITLE "13:cjc171_03013"
    INDEX 01 00:32:40
  TRACK 27 AUDIO
    TITLE "0:"
    INDEX 01 00:35:07
  TRACK 28 AUDIO
    TITLE "14:cjc171_03014"
    INDEX 01 00:35:48
  TRACK 29 AUDIO
    TITLE "0:"
    INDEX 01 00:38:34
  TRACK 30 AUDIO
    TITLE "15:cjc171_03015"
    INDEX 01 00:38:66
  TRACK 31 AUDIO
    TITLE "0:"
    INDEX 01 00:41:52
  TRACK 32 AUDIO
    TITLE "11:cjc171_03016"
    INDEX 01 00:42:58
  TRACK 33 AUDIO
    TITLE "0:"
    INDEX 01 00:44:06
  TRACK 34 AUDIO
    TITLE "12:cjc171_03017"
    INDEX 01 00:44:45
  TRACK 35 AUDIO
    TITLE "0:"
    INDEX 01 00:47:35
  TRACK 36 AUDIO
    TITLE "13:cjc171_03018"
    INDEX 01 00:48:35
  TRACK 37 AUDIO
    TITLE "0:"
    INDEX 01 00:50:47
  TRACK 38 AUDIO
    TITLE "14:cjc171_03019"
    INDEX 01 00:51:12
  TRACK 39 AUDIO
    TITLE "0:"
    INDEX 01 00:52:72
  TRACK 40 AUDIO
    TITLE "15:cjc171_03020"
    INDEX 01 00:53:24
  TRACK 41 AUDIO
    TITLE "0:"
    INDEX 01 00:55:09
  TRACK 42 AUDIO
    TITLE "11:cjc171_03021"
    INDEX 01 00:56:13
  TRACK 43 AUDIO
    TITLE "0:"
    INDEX 01 00:57:49
  TRACK 44 AUDIO
    TITLE "12:cjc171_03022"
    INDEX 01 00:58:12
  TRACK 45 AUDIO
    TITLE "0:"
    INDEX 01 01:00:56
  TRACK 46 AUDIO
    TITLE "13:cjc171_03023"
    INDEX 01 01:01:55
  TRACK 47 AUDIO
    TITLE "0:"
    INDEX 01 01:03:56
  TRACK 48 AUDIO
    TITLE "14:cjc171_03024"
    INDEX 01 01:04:20
  TRACK 49 AUDIO
    TITLE "0:"
    INDEX 01 01:06:37
  TRACK 50 AUDIO
    TITLE "15:cjc171_03025"
    INDEX 01 01:06:66
  TRACK 51 AUDIO
    TITLE "0:"
    INDEX 01 01:09:10
  TRACK 52 AUDIO
    TITLE "11:cjc171_03026"
    INDEX 01 01:10:11
  TRACK 53 AUDIO
    TITLE "0:"
    INDEX 01 01:11:26
  TRACK 54 AUDIO
    TITLE "12:cjc171_03027"
    INDEX 01 01:11:65
  TRACK 55 AUDIO
    TITLE "0:"
    INDEX 01 01:14:50
  TRACK 56 AUDIO
    TITLE "13:cjc171_03028"
    INDEX 01 01:15:51
  TRACK 57 AUDIO
    TITLE "0:"
    INDEX 01 01:17:72
  TRACK 58 AUDIO
    TITLE "14:cjc171_03029"
    INDEX 01 01:18:26
  TRACK 59 AUDIO
    TITLE "0:"
    INDEX 01 01:20:49
  TRACK 60 AUDIO
    TITLE "15:cjc171_03030"
    INDEX 01 01:20:68
  TRACK 61 AUDIO
    TITLE "0:"
    INDEX 01 01:23:16
  TRACK 62 AUDIO
    TITLE "11:cjc171_03031"
    INDEX 01 01:24:19
  TRACK 63 AUDIO
    TITLE "0:"
    INDEX 01 01:25:50
  TRACK 64 AUDIO
    TITLE "12:cjc171_03032"
    INDEX 01 01:26:08
  TRACK 65 AUDIO
    TITLE "0:"
    INDEX 01 01:27:27
  TRACK 66 AUDIO
    TITLE "13:cjc171_03033"
    INDEX 01 01:28:28
  TRACK 67 AUDIO
    TITLE "0:"
    INDEX 01 01:29:73
  TRACK 68 AUDIO
    TITLE "14:cjc171_03034"
    INDEX 01 01:30:39
  TRACK 69 AUDIO
    TITLE "0:"
    INDEX 01 01:32:42
  TRACK 70 AUDIO
    TITLE "15:cjc171_03035"
    INDEX 01 01:32:65
  TRACK 71 AUDIO
    TITLE "0:"
    INDEX 01 01:34:70
  TRACK 72 AUDIO
    TITLE "11:cjc171_03036"
    INDEX 01 01:35:68
  TRACK 73 AUDIO
    TITLE "0:"
    INDEX 01 01:37:22
  TRACK 74 AUDIO
    TITLE "12:cjc171_03037"
    INDEX 01 01:37:63
  TRACK 75 AUDIO
    TITLE "0:"
    INDEX 01 01:40:04
  TRACK 76 AUDIO
    TITLE "13:cjc171_03038"
    INDEX 01 01:41:04
  TRACK 77 AUDIO
    TITLE "0:"
    INDEX 01 01:42:50
  TRACK 78 AUDIO
    TITLE "14:cjc171_03039"
    INDEX 01 01:43:14
  TRACK 79 AUDIO
    TITLE "0:"
    INDEX 01 01:45:13
  TRACK 80 AUDIO
    TITLE "15:cjc171_03040"
    INDEX 01 01:45:43
  TRACK 81 AUDIO
    TITLE "0:"
    INDEX 01 01:47:41
  TRACK 82 AUDIO
    TITLE "11:cjc171_03041"
    INDEX 01 01:48:45
  TRACK 83 AUDIO
    TITLE "0:"
    INDEX 01 01:49:48
  TRACK 84 AUDIO
    TITLE "12:cjc171_03042"
    INDEX 01 01:50:12
  TRACK 85 AUDIO
    TITLE "0:"
    INDEX 01 01:51:37
  TRACK 86 AUDIO
    TITLE "13:cjc171_03043"
    INDEX 01 01:52:37
  TRACK 87 AUDIO
    TITLE "0:"
    INDEX 01 01:54:22
  TRACK 88 AUDIO
    TITLE "14:cjc171_03044"
    INDEX 01 01:54:63
  TRACK 89 AUDIO
    TITLE "0:"
    INDEX 01 01:56:54
  TRACK 90 AUDIO
    TITLE "15:cjc171_03045"
    INDEX 01 01:57:09
  TRACK 91 AUDIO
    TITLE "0:"
    INDEX 01 01:58:73
  TRACK 92 AUDIO
    TITLE "11:cjc171_03046"
    INDEX 01 02:00:03
  TRACK 93 AUDIO
    TITLE "0:"
    INDEX 01 02:01:18
  TRACK 94 AUDIO
    TITLE "12:cjc171_03047"
    INDEX 01 02:01:55
  TRACK 95 AUDIO
    TITLE "0:"
    INDEX 01 02:04:40
  TRACK 96 AUDIO
    TITLE "13:cjc171_03048"
    INDEX 01 02:05:37
  TRACK 97 AUDIO
    TITLE "0:"
    INDEX 01 02:07:28
  TRACK 98 AUDIO
    TITLE "14:cjc171_03049"
    INDEX 01 02:07:68
  TRACK 99 AUDIO
    TITLE "0:"
    INDEX 01 02:09:49
  TRACK 100 AUDIO
    TITLE "15:cjc171_03050"
    INDEX 01 02:10:03
  TRACK 101 AUDIO
    TITLE "0:"
    INDEX 01 02:11:60
  TRACK 102 AUDIO
    TITLE "11:cjc171_03051"
    INDEX 01 02:12:65
  TRACK 103 AUDIO
    TITLE "0:"
    INDEX 01 02:14:11
  TRACK 104 AUDIO
    TITLE "12:cjc171_03052"
    INDEX 01 02:14:50
  TRACK 105 AUDIO
    TITLE "0:"
    INDEX 01 02:15:67
  TRACK 106 AUDIO
    TITLE "13:cjc171_03053"
    INDEX 01 02:16:67
  TRACK 107 AUDIO
    TITLE "0:"
    INDEX 01 02:18:34
  TRACK 108 AUDIO
    TITLE "14:cjc171_03054"
    INDEX 01 02:18:73
  TRACK 109 AUDIO
    TITLE "0:"
    INDEX 01 02:20:61
  TRACK 110 AUDIO
    TITLE "15:cjc171_03055"
    INDEX 01 02:21:15
  TRACK 111 AUDIO
    TITLE "0:"
    INDEX 01 02:23:02
  TRACK 112 AUDIO
    TITLE "11:cjc171_03056"
    INDEX 01 02:24:05
  TRACK 113 AUDIO
    TITLE "0:"
    INDEX 01 02:25:22
  TRACK 114 AUDIO
    TITLE "12:cjc171_03057"
    INDEX 01 02:25:64
  TRACK 115 AUDIO
    TITLE "0:"
    INDEX 01 02:28:40
  TRACK 116 AUDIO
    TITLE "13:cjc171_03058"
    INDEX 01 02:29:40
  TRACK 117 AUDIO
    TITLE "0:"
    INDEX 01 02:31:37
  TRACK 118 AUDIO
    TITLE "14:cjc171_03059"
    INDEX 01 02:31:68
  TRACK 119 AUDIO
    TITLE "0:"
    INDEX 01 02:34:12
  TRACK 120 AUDIO
    TITLE "15:cjc171_03060"
    INDEX 01 02:34:35
  TRACK 121 AUDIO
    TITLE "0:"
    INDEX 01 02:36:54
  TRACK 122 AUDIO
    TITLE "11:cjc171_03061"
    INDEX 01 02:37:59
  TRACK 123 AUDIO
    TITLE "0:"
    INDEX 01 02:39:09
  TRACK 124 AUDIO
    TITLE "12:cjc171_03062"
    INDEX 01 02:39:48
  TRACK 125 AUDIO
    TITLE "0:"
    INDEX 01 02:42:23
  TRACK 126 AUDIO
    TITLE "13:cjc171_03063"
    INDEX 01 02:43:22
  TRACK 127 AUDIO
    TITLE "0:"
    INDEX 01 02:45:47
  TRACK 128 AUDIO
    TITLE "14:cjc171_03064"
    INDEX 01 02:46:09
  TRACK 129 AUDIO
    TITLE "0:"
    INDEX 01 02:48:41
  TRACK 130 AUDIO
    TITLE "15:cjc171_03065"
    INDEX 01 02:48:73
  TRACK 131 AUDIO
    TITLE "0:"
    INDEX 01 02:51:26
  TRACK 132 AUDIO
    TITLE "11:cjc171_03066"
    INDEX 01 02:52:29
  TRACK 133 AUDIO
    TITLE "0:"
    INDEX 01 02:53:34
  TRACK 134 AUDIO
    TITLE "12:cjc171_03067"
    INDEX 01 02:53:74
  TRACK 135 AUDIO
    TITLE "0:"
    INDEX 01 02:56:23
  TRACK 136 AUDIO
    TITLE "13:cjc171_03068"
    INDEX 01 02:57:22
  TRACK 137 AUDIO
    TITLE "0:"
    INDEX 01 02:59:53
  TRACK 138 AUDIO
    TITLE "14:cjc171_03069"
    INDEX 01 03:00:21
  TRACK 139 AUDIO
    TITLE "0:"
    INDEX 01 03:02:43
  TRACK 140 AUDIO
    TITLE "15:cjc171_03070"
    INDEX 01 03:02:75
  TRACK 141 AUDIO
    TITLE "0:"
    INDEX 01 03:05:24
  TRACK 142 AUDIO
    TITLE "11:cjc171_03071"
    INDEX 01 03:06:29
  TRACK 143 AUDIO
    TITLE "0:"
    INDEX 01 03:07:54
  TRACK 144 AUDIO
    TITLE "12:cjc171_03072"
    INDEX 01 03:08:16
  TRACK 145 AUDIO
    TITLE "0:"
    INDEX 01 03:09:73
  TRACK 146 AUDIO
    TITLE "13:cjc171_03073"
    INDEX 01 03:10:70
  TRACK 147 AUDIO
    TITLE "0:"
    INDEX 01 03:13:27
  TRACK 148 AUDIO
    TITLE "14:cjc171_03074"
    INDEX 01 03:13:67
  TRACK 149 AUDIO
    TITLE "0:"
    INDEX 01 03:16:04
  TRACK 150 AUDIO
    TITLE "15:cjc171_03075"
    INDEX 01 03:16:36
  TRACK 151 AUDIO
    TITLE "0:"
    INDEX 01 03:18:48
  TRACK 152 AUDIO
    TITLE "11:cjc171_03076"
    INDEX 01 03:19:53
  TRACK 153 AUDIO
    TITLE "0:"
    INDEX 01 03:20:73
  TRACK 154 AUDIO
    TITLE "12:cjc171_03077"
    INDEX 01 03:21:35
  TRACK 155 AUDIO
    TITLE "0:"
    INDEX 01 03:23:75
  TRACK 156 AUDIO
    TITLE "13:cjc171_03078"
    INDEX 01 03:25:01
  TRACK 157 AUDIO
    TITLE "0:"
    INDEX 01 03:26:52
  TRACK 158 AUDIO
    TITLE "14:cjc171_03079"
    INDEX 01 03:27:18
  TRACK 159 AUDIO
    TITLE "0:"
    INDEX 01 03:29:69
  TRACK 160 AUDIO
    TITLE "15:cjc171_03080"
    INDEX 01 03:30:20
  TRACK 161 AUDIO
    TITLE "0:"
    INDEX 01 03:32:72
  TRACK 162 AUDIO
    TITLE "11:cjc171_03081"
    INDEX 01 03:33:73
  TRACK 163 AUDIO
    TITLE "0:"
    INDEX 01 03:35:17
  TRACK 164 AUDIO
    TITLE "12:cjc171_03082"
    INDEX 01 03:35:60
  TRACK 165 AUDIO
    TITLE "0:"
    INDEX 01 03:37:24
  TRACK 166 AUDIO
    TITLE "13:cjc171_03083"
    INDEX 01 03:38:23
  TRACK 167 AUDIO
    TITLE "0:"
    INDEX 01 03:40:20
  TRACK 168 AUDIO
    TITLE "14:cjc171_03084"
    INDEX 01 03:40:61
  TRACK 169 AUDIO
    TITLE "0:"
    INDEX 01 03:43:46
  TRACK 170 AUDIO
    TITLE "15:cjc171_03085"
    INDEX 01 03:44:02
  TRACK 171 AUDIO
    TITLE "0:"
    INDEX 01 03:46:62
  TRACK 172 AUDIO
    TITLE "11:cjc171_03086"
    INDEX 01 03:47:65
  TRACK 173 AUDIO
    TITLE "0:"
    INDEX 01 03:48:75
  TRACK 174 AUDIO
    TITLE "12:cjc171_03087"
    INDEX 01 03:49:41
  TRACK 175 AUDIO
    TITLE "0:"
    INDEX 01 03:51:48
  TRACK 176 AUDIO
    TITLE "13:cjc171_03088"
    INDEX 01 03:52:45
  TRACK 177 AUDIO
    TITLE "0:"
    INDEX 01 03:55:08
  TRACK 178 AUDIO
    TITLE "14:cjc171_03089"
    INDEX 01 03:55:47
  TRACK 179 AUDIO
    TITLE "0:"
    INDEX 01 03:57:60
  TRACK 180 AUDIO
    TITLE "15:cjc171_03090"
    INDEX 01 03:58:14
  TRACK 181 AUDIO
    TITLE "0:"
    INDEX 01 04:00:29
  TRACK 182 AUDIO
    TITLE "11:cjc171_03091"
    INDEX 01 04:01:32
  TRACK 183 AUDIO
    TITLE "0:"
    INDEX 01 04:02:69
  TRACK 184 AUDIO
    TITLE "12:cjc171_03092"
    INDEX 01 04:03:29
  TRACK 185 AUDIO
    TITLE "0:"
    INDEX 01 04:05:14
  TRACK 186 AUDIO
    TITLE "13:cjc171_03093"
    INDEX 01 04:06:16
  TRACK 187 AUDIO
    TITLE "0:"
    INDEX 01 04:08:28
  TRACK 188 AUDIO
    TITLE "14:cjc171_03094"
    INDEX 01 04:08:73
  TRACK 189 AUDIO
    TITLE "0:"
    INDEX 01 04:11:05
  TRACK 190 AUDIO
    TITLE "15:cjc171_03095"
    INDEX 01 04:11:27
  TRACK 191 AUDIO
    TITLE "0:"
    INDEX 01 04:13:39
  TRACK 192 AUDIO
    TITLE "11:cjc171_03096"
    INDEX 01 04:14:35
  TRACK 193 AUDIO
    TITLE "0:"
    INDEX 01 04:15:54
  TRACK 194 AUDIO
    TITLE "12:cjc171_03097"
    INDEX 01 04:16:18
  TRACK 195 AUDIO
    TITLE "0:"
    INDEX 01 04:17:67
  TRACK 196 AUDIO
    TITLE "13:cjc171_03098"
    INDEX 01 04:18:68
  TRACK 197 AUDIO
    TITLE "0:"
    INDEX 01 04:21:66
  TRACK 198 AUDIO
    TITLE "14:cjc171_03099"
    INDEX 01 04:22:32
  TRACK 199 AUDIO
    TITLE "0:"
    INDEX 01 04:24:47
  TRACK 200 AUDIO
    TITLE "15:cjc171_03100"
    INDEX 01 04:25:01
  TRACK 201 AUDIO
    TITLE "0:"
    INDEX 01 04:27:18
  TRACK 202 AUDIO
    TITLE "11:cjc171_03101"
    INDEX 01 04:28:21
  TRACK 203 AUDIO
    TITLE "0:"
    INDEX 01 04:29:27
  TRACK 204 AUDIO
    TITLE "12:cjc171_03102"
    INDEX 01 04:29:68
  TRACK 205 AUDIO
    TITLE "0:"
    INDEX 01 04:32:05
  TRACK 206 AUDIO
    TITLE "13:cjc171_03103"
    INDEX 01 04:33:05
  TRACK 207 AUDIO
    TITLE "0:"
    INDEX 01 04:35:41
  TRACK 208 AUDIO
    TITLE "14:cjc171_03104"
    INDEX 01 04:36:05
  TRACK 209 AUDIO
    TITLE "0:"
    INDEX 01 04:38:26
  TRACK 210 AUDIO
    TITLE "15:cjc171_03105"
    INDEX 01 04:38:57
  TRACK 211 AUDIO
    TITLE "0:"
    INDEX 01 04:41:04
  TRACK 212 AUDIO
    TITLE "11:cjc171_03106"
    INDEX 01 04:42:12
  TRACK 213 AUDIO
    TITLE "0:"
    INDEX 01 04:43:21
  TRACK 214 AUDIO
    TITLE "12:cjc171_03107"
    INDEX 01 04:43:58
  TRACK 215 AUDIO
    TITLE "0:"
    INDEX 01 04:44:71
  TRACK 216 AUDIO
    TITLE "13:cjc171_03108"
    INDEX 01 04:45:71
  TRACK 217 AUDIO
    TITLE "0:"
    INDEX 01 04:48:20
  TRACK 218 AUDIO
    TITLE "14:cjc171_03109"
    INDEX 01 04:48:59
  TRACK 219 AUDIO
    TITLE "0:"
    INDEX 01 04:51:24
  TRACK 220 AUDIO
    TITLE "15:cjc171_03110"
    INDEX 01 04:51:56
  TRACK 221 AUDIO
    TITLE "0:"
    INDEX 01 04:54:23
  TRACK 222 AUDIO
    TITLE "11:cjc171_03111"
    INDEX 01 04:55:26
  TRACK 223 AUDIO
    TITLE "0:"
    INDEX 01 04:56:37
  TRACK 224 AUDIO
    TITLE "12:cjc171_03112"
    INDEX 01 04:56:74
  TRACK 225 AUDIO
    TITLE "0:"
    INDEX 01 04:58:20
  TRACK 226 AUDIO
    TITLE "13:cjc171_03113"
    INDEX 01 04:59:20
  TRACK 227 AUDIO
    TITLE "0:"
    INDEX 01 05:01:74
  TRACK 228 AUDIO
    TITLE "14:cjc171_03114"
    INDEX 01 05:02:40
  TRACK 229 AUDIO
    TITLE "0:"
    INDEX 01 05:05:42
  TRACK 230 AUDIO
    TITLE "15:cjc171_03115"
    INDEX 01 05:05:70
  TRACK 231 AUDIO
    TITLE "0:"
    INDEX 01 05:08:72
  TRACK 232 AUDIO
    TITLE "11:cjc171_03116"
    INDEX 01 05:09:75
  TRACK 233 AUDIO
    TITLE "0:"
    INDEX 01 05:11:29
  TRACK 234 AUDIO
    TITLE "12:cjc171_03117"
    INDEX 01 05:11:70
  TRACK 235 AUDIO
    TITLE "0:"
    INDEX 01 05:12:70
  TRACK 236 AUDIO
    TITLE "13:cjc171_03118"
    INDEX 01 05:13:69
  TRACK 237 AUDIO
    TITLE "0:"
    INDEX 01 05:15:46
  TRACK 238 AUDIO
    TITLE "14:cjc171_03119"
    INDEX 01 05:16:09
  TRACK 239 AUDIO
    TITLE "0:"
    INDEX 01 05:17:73
  TRACK 240 AUDIO
    TITLE "15:cjc171_03120"
    INDEX 01 05:18:27
  TRACK 241 AUDIO
    TITLE "0:"
    INDEX 01 05:20:14
  TRACK 242 AUDIO
    TITLE "11:cjc171_03121"
    INDEX 01 05:21:20
  TRACK 243 AUDIO
    TITLE "0:"
    INDEX 01 05:22:52
  TRACK 244 AUDIO
    TITLE "12:cjc171_03122"
    INDEX 01 05:23:16
  TRACK 245 AUDIO
    TITLE "0:"
    INDEX 01 05:25:68
  TRACK 246 AUDIO
    TITLE "13:cjc171_03123"
    INDEX 01 05:26:68
  TRACK 247 AUDIO
    TITLE "0:"
    INDEX 01 05:29:39
  TRACK 248 AUDIO
    TITLE "14:cjc171_03124"
    INDEX 01 05:29:74
  TRACK 249 AUDIO
    TITLE "0:"
    INDEX 01 05:32:61
  TRACK 250 AUDIO
    TITLE "15:cjc171_03125"
    INDEX 01 05:33:15
  TRACK 251 AUDIO
    TITLE "0:"
    INDEX 01 05:35:75
  TRACK 252 AUDIO
    TITLE "11:cjc171_03126"
    INDEX 01 05:37:09
  TRACK 253 AUDIO
    TITLE "0:"
    INDEX 01 05:38:24
  TRACK 254 AUDIO
    TITLE "12:cjc171_03127"
    INDEX 01 05:38:61
  TRACK 255 AUDIO
    TITLE "0:"
    INDEX 01 05:41:07
  TRACK 256 AUDIO
    TITLE "13:cjc171_03128"
    INDEX 01 05:42:12
  TRACK 257 AUDIO
    TITLE "0:"
    INDEX 01 05:44:26
  TRACK 258 AUDIO
    TITLE "14:cjc171_03129"
    INDEX 01 05:44:68
  TRACK 259 AUDIO
    TITLE "0:"
    INDEX 01 05:47:03
  TRACK 260 AUDIO
    TITLE "15:cjc171_03130"
    INDEX 01 05:47:31
  TRACK 261 AUDIO
    TITLE "0:"
    INDEX 01 05:49:43
  TRACK 262 AUDIO
    TITLE "11:cjc171_03131"
    INDEX 01 05:50:47
  TRACK 263 AUDIO
    TITLE "0:"
    INDEX 01 05:51:70
  TRACK 264 AUDIO
    TITLE "12:cjc171_03132"
    INDEX 01 05:52:34
  TRACK 265 AUDIO
    TITLE "0:"
    INDEX 01 05:54:52
  TRACK 266 AUDIO
    TITLE "13:cjc171_03133"
    INDEX 01 05:55:52
  TRACK 267 AUDIO
    TITLE "0:"
    INDEX 01 05:57:37
  TRACK 268 AUDIO
    TITLE "14:cjc171_03134"
    INDEX 01 05:58:01
  TRACK 269 AUDIO
    TITLE "0:"
    INDEX 01 06:00:14
  TRACK 270 AUDIO
    TITLE "15:cjc171_03135"
    INDEX 01 06:00:41
  TRACK 271 AUDIO
    TITLE "0:"
    INDEX 01 06:02:52
  TRACK 272 AUDIO
    TITLE "11:cjc171_03136"
    INDEX 01 06:03:57
  TRACK 273 AUDIO
    TITLE "0:"
    INDEX 01 06:05:19
  TRACK 274 AUDIO
    TITLE "12:cjc171_03137"
    INDEX 01 06:05:56
  TRACK 275 AUDIO
    TITLE "0:"
    INDEX 01 06:07:75
  TRACK 276 AUDIO
    TITLE "13:cjc171_03138"
    INDEX 01 06:08:74
  TRACK 277 AUDIO
    TITLE "0:"
    INDEX 01 06:12:07
  TRACK 278 AUDIO
    TITLE "14:cjc171_03139"
    INDEX 01 06:12:46
  TRACK 279 AUDIO
    TITLE "0:"
    INDEX 01 06:15:52
  TRACK 280 AUDIO
    TITLE "15:cjc171_03140"
    INDEX 01 06:16:07
  TRACK 281 AUDIO
    TITLE "0:"
    INDEX 01 06:19:11
  TRACK 282 AUDIO
    TITLE "11:cjc171_03141"
    INDEX 01 06:20:16
  TRACK 283 AUDIO
    TITLE "0:"
    INDEX 01 06:21:35
  TRACK 284 AUDIO
    TITLE "12:cjc171_03142"
    INDEX 01 06:22:02
  TRACK 285 AUDIO
    TITLE "0:"
    INDEX 01 06:23:40
  TRACK 286 AUDIO
    TITLE "13:cjc171_03143"
    INDEX 01 06:24:32
  TRACK 287 AUDIO
    TITLE "0:"
    INDEX 01 06:26:29
  TRACK 288 AUDIO
    TITLE "14:cjc171_03144"
    INDEX 01 06:26:66
  TRACK 289 AUDIO
    TITLE "0:"
    INDEX 01 06:28:73
  TRACK 290 AUDIO
    TITLE "15:cjc171_03145"
    INDEX 01 06:29:27
  TRACK 291 AUDIO
    TITLE "0:"
    INDEX 01 06:31:32
  TRACK 292 AUDIO
    TITLE "11:cjc171_03146"
    INDEX 01 06:32:37
  TRACK 293 AUDIO
    TITLE "0:"
    INDEX 01 06:33:50
  TRACK 294 AUDIO
    TITLE "12:cjc171_03147"
    INDEX 01 06:34:15
  TRACK 295 AUDIO
    TITLE "0:"
    INDEX 01 06:37:13
  TRACK 296 AUDIO
    TITLE "13:cjc171_03148"
    INDEX 01 06:38:12
  TRACK 297 AUDIO
    TITLE "0:"
    INDEX 01 06:40:39
  TRACK 298 AUDIO
    TITLE "14:cjc171_03149"
    INDEX 01 06:41:03
  TRACK 299 AUDIO
    TITLE "0:"
    INDEX 01 06:43:12
  TRACK 300 AUDIO
    TITLE "15:cjc171_03150"
    INDEX 01 06:43:43
  TRACK 301 AUDIO
    TITLE "0:"
    INDEX 01 06:45:50
  TRACK 302 AUDIO
    TITLE "11:cjc171_03151"
    INDEX 01 06:46:55
  TRACK 303 AUDIO
    TITLE "0:"
    INDEX 01 06:47:74
  TRACK 304 AUDIO
    TITLE "12:cjc171_03152"
    INDEX 01 06:48:36
  TRACK 305 AUDIO
    TITLE "0:"
    INDEX 01 06:49:40
  TRACK 306 AUDIO
    TITLE "13:cjc171_03153"
    INDEX 01 06:50:39
  TRACK 307 AUDIO
    TITLE "0:"
    INDEX 01 06:51:72
  TRACK 308 AUDIO
    TITLE "14:cjc171_03154"
    INDEX 01 06:52:26
  TRACK 309 AUDIO
    TITLE "0:"
    INDEX 01 06:54:19
  TRACK 310 AUDIO
    TITLE "15:cjc171_03155"
    INDEX 01 06:54:49
  TRACK 311 AUDIO
    TITLE "0:"
    INDEX 01 06:56:40
  TRACK 312 AUDIO
    TITLE "11:cjc171_03156"
    INDEX 01 06:57:49
  TRACK 313 AUDIO
    TITLE "0:"
    INDEX 01 06:58:72
  TRACK 314 AUDIO
    TITLE "12:cjc171_03157"
    INDEX 01 06:59:38
  TRACK 315 AUDIO
    TITLE "0:"
    INDEX 01 07:01:17
  TRACK 316 AUDIO
    TITLE "13:cjc171_03158"
    INDEX 01 07:02:17
  TRACK 317 AUDIO
    TITLE "0:"
    INDEX 01 07:03:63
  TRACK 318 AUDIO
    TITLE "14:cjc171_03159"
    INDEX 01 07:04:27
  TRACK 319 AUDIO
    TITLE "0:"
    INDEX 01 07:06:42
  TRACK 320 AUDIO
    TITLE "15:cjc171_03160"
    INDEX 01 07:06:71
  TRACK 321 AUDIO
    TITLE "0:"
    INDEX 01 07:09:11
  TRACK 322 AUDIO
    TITLE "11:cjc171_03161"
    INDEX 01 07:10:16
  TRACK 323 AUDIO
    TITLE "0:"
    INDEX 01 07:11:45
  TRACK 324 AUDIO
    TITLE "12:cjc171_03162"
    INDEX 01 07:12:11
  TRACK 325 AUDIO
    TITLE "0:"
    INDEX 01 07:14:20
  TRACK 326 AUDIO
    TITLE "13:cjc171_03163"
    INDEX 01 07:15:19
  TRACK 327 AUDIO
    TITLE "0:"
    INDEX 01 07:17:30
  TRACK 328 AUDIO
    TITLE "14:cjc171_03164"
    INDEX 01 07:17:69
  TRACK 329 AUDIO
    TITLE "0:"
    INDEX 01 07:20:62
  TRACK 330 AUDIO
    TITLE "15:cjc171_03165"
    INDEX 01 07:21:14
  TRACK 331 AUDIO
    TITLE "0:"
    INDEX 01 07:24:07
  TRACK 332 AUDIO
    TITLE "11:cjc171_03166"
    INDEX 01 07:25:10
  TRACK 333 AUDIO
    TITLE "0:"
    INDEX 01 07:26:43
  TRACK 334 AUDIO
    TITLE "12:cjc171_03167"
    INDEX 01 07:26:74
  TRACK 335 AUDIO
    TITLE "0:"
    INDEX 01 07:28:73
  TRACK 336 AUDIO
    TITLE "13:cjc171_03168"
    INDEX 01 07:29:70
  TRACK 337 AUDIO
    TITLE "0:"
    INDEX 01 07:31:54
  TRACK 338 AUDIO
    TITLE "14:cjc171_03169"
    INDEX 01 07:32:20
  TRACK 339 AUDIO
    TITLE "0:"
    INDEX 01 07:34:30
  TRACK 340 AUDIO
    TITLE "15:cjc171_03170"
    INDEX 01 07:34:56
  TRACK 341 AUDIO
    TITLE "0:"
    INDEX 01 07:36:67
  TRACK 342 AUDIO
    TITLE "11:cjc171_03171"
    INDEX 01 07:37:64
  TRACK 343 AUDIO
    TITLE "0:"
    INDEX 01 07:39:10
  TRACK 344 AUDIO
    TITLE "12:cjc171_03172"
    INDEX 01 07:39:45
  TRACK 345 AUDIO
    TITLE "0:"
    INDEX 01 07:42:30
  TRACK 346 AUDIO
    TITLE "13:cjc171_03173"
    INDEX 01 07:43:28
  TRACK 347 AUDIO
    TITLE "0:"
    INDEX 01 07:45:56
  TRACK 348 AUDIO
    TITLE "14:cjc171_03174"
    INDEX 01 07:46:20
  TRACK 349 AUDIO
    TITLE "0:"
    INDEX 01 07:48:23
  TRACK 350 AUDIO
    TITLE "15:cjc171_03175"
    INDEX 01 07:48:52
  TRACK 351 AUDIO
    TITLE "0:"
    INDEX 01 07:50:55
  TRACK 352 AUDIO
    TITLE "11:cjc171_03176"
    INDEX 01 07:51:60
  TRACK 353 AUDIO
    TITLE "0:"
    INDEX 01 07:53:06
  TRACK 354 AUDIO
    TITLE "12:cjc171_03177"
    INDEX 01 07:53:42
  TRACK 355 AUDIO
    TITLE "0:"
    INDEX 01 07:55:60
  TRACK 356 AUDIO
    TITLE "13:cjc171_03178"
    INDEX 01 07:56:60
  TRACK 357 AUDIO
    TITLE "0:"
    INDEX 01 07:59:19
  TRACK 358 AUDIO
    TITLE "14:cjc171_03179"
    INDEX 01 07:59:54
  TRACK 359 AUDIO
    TITLE "0:"
    INDEX 01 08:02:07
  TRACK 360 AUDIO
    TITLE "15:cjc171_03180"
    INDEX 01 08:02:31
  TRACK 361 AUDIO
    TITLE "0:"
    INDEX 01 08:04:59
  TRACK 362 AUDIO
    TITLE "11:cjc171_03181"
    INDEX 01 08:05:64
  TRACK 363 AUDIO
    TITLE "0:"
    INDEX 01 08:07:10
  TRACK 364 AUDIO
    TITLE "12:cjc171_03182"
    INDEX 01 08:07:52
  TRACK 365 AUDIO
    TITLE "0:"
    INDEX 01 08:09:60
  TRACK 366 AUDIO
    TITLE "13:cjc171_03183"
    INDEX 01 08:10:60
  TRACK 367 AUDIO
    TITLE "0:"
    INDEX 01 08:14:30
  TRACK 368 AUDIO
    TITLE "14:cjc171_03184"
    INDEX 01 08:14:69
  TRACK 369 AUDIO
    TITLE "0:"
    INDEX 01 08:17:71
  TRACK 370 AUDIO
    TITLE "15:cjc171_03185"
    INDEX 01 08:18:28
  TRACK 371 AUDIO
    TITLE "0:"
    INDEX 01 08:21:30
  TRACK 372 AUDIO
    TITLE "11:cjc171_03186"
    INDEX 01 08:22:33
  TRACK 373 AUDIO
    TITLE "0:"
    INDEX 01 08:23:49
  TRACK 374 AUDIO
    TITLE "12:cjc171_03187"
    INDEX 01 08:24:15
  TRACK 375 AUDIO
    TITLE "0:"
    INDEX 01 08:25:63
  TRACK 376 AUDIO
    TITLE "13:cjc171_03188"
    INDEX 01 08:26:63
  TRACK 377 AUDIO
    TITLE "0:"
    INDEX 01 08:29:28
  TRACK 378 AUDIO
    TITLE "14:cjc171_03189"
    INDEX 01 08:29:67
  TRACK 379 AUDIO
    TITLE "0:"
    INDEX 01 08:32:20
  TRACK 380 AUDIO
    TITLE "15:cjc171_03190"
    INDEX 01 08:32:42
  TRACK 381 AUDIO
    TITLE "0:"
    INDEX 01 08:34:70
  TRACK 382 AUDIO
    TITLE "11:cjc171_03191"
    INDEX 01 08:35:60
  TRACK 383 AUDIO
    TITLE "0:"
    INDEX 01 08:37:11
  TRACK 384 AUDIO
    TITLE "12:cjc171_03192"
    INDEX 01 08:37:53
  TRACK 385 AUDIO
    TITLE "0:"
    INDEX 01 08:39:08
  TRACK 386 AUDIO
    TITLE "13:cjc171_03193"
    INDEX 01 08:40:08
  TRACK 387 AUDIO
    TITLE "0:"
    INDEX 01 08:42:09
  TRACK 388 AUDIO
    TITLE "14:cjc171_03194"
    INDEX 01 08:42:48
  TRACK 389 AUDIO
    TITLE "0:"
    INDEX 01 08:44:45
  TRACK 390 AUDIO
    TITLE "15:cjc171_03195"
    INDEX 01 08:44:74
  TRACK 391 AUDIO
    TITLE "0:"
    INDEX 01 08:46:73
  TRACK 392 AUDIO
    TITLE "11:cjc171_03196"
    INDEX 01 08:48:01
  TRACK 393 AUDIO
    TITLE "0:"
    INDEX 01 08:49:42
  TRACK 394 AUDIO
    TITLE "12:cjc171_03197"
    INDEX 01 08:50:06
  TRACK 395 AUDIO
    TITLE "0:"
    INDEX 01 08:52:38
  TRACK 396 AUDIO
    TITLE "13:cjc171_03198"
    INDEX 01 08:53:40
  TRACK 397 AUDIO
    TITLE "0:"
    INDEX 01 08:56:70
  TRACK 398 AUDIO
    TITLE "14:cjc171_03199"
    INDEX 01 08:57:32
  TRACK 399 AUDIO
    TITLE "0:"
    INDEX 01 09:01:02
  TRACK 400 AUDIO
    TITLE "15:cjc171_03200"
    INDEX 01 09:01:30
  TRACK 401 AUDIO
    TITLE "0:"
    INDEX 01 09:04:75
  TRACK 402 AUDIO
    TITLE "11:cjc171_03201"
    INDEX 01 09:06:01
  TRACK 403 AUDIO
    TITLE "0:"
    INDEX 01 09:07:28
  TRACK 404 AUDIO
    TITLE "12:cjc171_03202"
    INDEX 01 09:07:64
  TRACK 405 AUDIO
    TITLE "0:"
    INDEX 01 09:09:74
  TRACK 406 AUDIO
    TITLE "13:cjc171_03203"
    INDEX 01 09:10:72
  TRACK 407 AUDIO
    TITLE "0:"
    INDEX 01 09:13:17
  TRACK 408 AUDIO
    TITLE "14:cjc171_03204"
    INDEX 01 09:13:50
  TRACK 409 AUDIO
    TITLE "0:"
    INDEX 01 09:15:57
  TRACK 410 AUDIO
    TITLE "15:cjc171_03205"
    INDEX 01 09:16:06
  TRACK 411 AUDIO
    TITLE "0:"
    INDEX 01 09:18:10
  TRACK 412 AUDIO
    TITLE "11:cjc171_03206"
    INDEX 01 09:19:18
  TRACK 413 AUDIO
    TITLE "0:"
    INDEX 01 09:20:45
  TRACK 414 AUDIO
    TITLE "12:cjc171_03207"
    INDEX 01 09:21:07
  TRACK 415 AUDIO
    TITLE "0:"
    INDEX 01 09:22:43
  TRACK 416 AUDIO
    TITLE "13:cjc171_03208"
    INDEX 01 09:23:45
  TRACK 417 AUDIO
    TITLE "0:"
    INDEX 01 09:25:52
  TRACK 418 AUDIO
    TITLE "14:cjc171_03209"
    INDEX 01 09:26:10
  TRACK 419 AUDIO
    TITLE "0:"
    INDEX 01 09:28:34
  TRACK 420 AUDIO
    TITLE "15:cjc171_03210"
    INDEX 01 09:28:60
  TRACK 421 AUDIO
    TITLE "0:"
    INDEX 01 09:31:09
  TRACK 422 AUDIO
    TITLE "11:cjc171_03211"
    INDEX 01 09:32:16
  TRACK 423 AUDIO
    TITLE "0:"
    INDEX 01 09:33:34
  TRACK 424 AUDIO
    TITLE "12:cjc171_03212"
    INDEX 01 09:33:73
  TRACK 425 AUDIO
    TITLE "0:"
    INDEX 01 09:35:42
  TRACK 426 AUDIO
    TITLE "13:cjc171_03213"
    INDEX 01 09:36:42
  TRACK 427 AUDIO
    TITLE "0:"
    INDEX 01 09:38:42
  TRACK 428 AUDIO
    TITLE "14:cjc171_03214"
    INDEX 01 09:39:07
  TRACK 429 AUDIO
    TITLE "0:"
    INDEX 01 09:41:13
  TRACK 430 AUDIO
    TITLE "15:cjc171_03215"
    INDEX 01 09:41:45
  TRACK 431 AUDIO
    TITLE "0:"
    INDEX 01 09:43:51
  TRACK 432 AUDIO
    TITLE "11:cjc171_03216"
    INDEX 01 09:44:57
  TRACK 433 AUDIO
    TITLE "0:"
    INDEX 01 09:46:03
  TRACK 434 AUDIO
    TITLE "12:cjc171_03217"
    INDEX 01 09:46:38
  TRACK 435 AUDIO
    TITLE "0:"
    INDEX 01 09:48:66
  TRACK 436 AUDIO
    TITLE "13:cjc171_03218"
    INDEX 01 09:49:66
  TRACK 437 AUDIO
    TITLE "0:"
    INDEX 01 09:51:75
  TRACK 438 AUDIO
    TITLE "14:cjc171_03219"
    INDEX 01 09:52:41
  TRACK 439 AUDIO
    TITLE "0:"
    INDEX 01 09:54:75
  TRACK 440 AUDIO
    TITLE "15:cjc171_03220"
    INDEX 01 09:55:29
  TRACK 441 AUDIO
    TITLE "0:"
    INDEX 01 09:57:65
  TRACK 442 AUDIO
    TITLE "11:cjc171_03221"
    INDEX 01 09:58:71
  TRACK 443 AUDIO
    TITLE "0:"
    INDEX 01 10:00:09
  TRACK 444 AUDIO
    TITLE "12:cjc171_03222"
    INDEX 01 10:00:48
  TRACK 445 AUDIO
    TITLE "0:"
    INDEX 01 10:02:57
  TRACK 446 AUDIO
    TITLE "13:cjc171_03223"
    INDEX 01 10:03:56
  TRACK 447 AUDIO
    TITLE "0:"
    INDEX 01 10:05:63
  TRACK 448 AUDIO
    TITLE "14:cjc171_03224"
    INDEX 01 10:06:27
  TRACK 449 AUDIO
    TITLE "0:"
    INDEX 01 10:08:42
  TRACK 450 AUDIO
    TITLE "15:cjc171_03225"
    INDEX 01 10:08:69
  TRACK 451 AUDIO
    TITLE "0:"
    INDEX 01 10:11:09
  TRACK 452 AUDIO
    TITLE "11:cjc171_03226"
    INDEX 01 10:12:12
  TRACK 453 AUDIO
    TITLE "0:"
    INDEX 01 10:13:35
  TRACK 454 AUDIO
    TITLE "12:cjc171_03227"
    INDEX 01 10:13:74
  TRACK 455 AUDIO
    TITLE "0:"
    INDEX 01 10:16:49
  TRACK 456 AUDIO
    TITLE "13:cjc171_03228"
    INDEX 01 10:17:46
  TRACK 457 AUDIO
    TITLE "0:"
    INDEX 01 10:20:17
  TRACK 458 AUDIO
    TITLE "14:cjc171_03229"
    INDEX 01 10:20:59
  TRACK 459 AUDIO
    TITLE "0:"
    INDEX 01 10:24:05
  TRACK 460 AUDIO
    TITLE "15:cjc171_03230"
    INDEX 01 10:24:35
  TRACK 461 AUDIO
    TITLE "0:"
    INDEX 01 10:27:55
  TRACK 462 AUDIO
    TITLE "11:cjc171_03231"
    INDEX 01 10:28:60
  TRACK 463 AUDIO
    TITLE "0:"
    INDEX 01 10:29:67
  TRACK 464 AUDIO
    TITLE "12:cjc171_03232"
    INDEX 01 10:30:33
  TRACK 465 AUDIO
    TITLE "0:"
    INDEX 01 10:32:62
  TRACK 466 AUDIO
    TITLE "13:cjc171_03233"
    INDEX 01 10:33:61
  TRACK 467 AUDIO
    TITLE "0:"
    INDEX 01 10:37:22
  TRACK 468 AUDIO
    TITLE "14:cjc171_03234"
    INDEX 01 10:37:61
  TRACK 469 AUDIO
    TITLE "0:"
    INDEX 01 10:40:38
  TRACK 470 AUDIO
    TITLE "15:cjc171_03235"
    INDEX 01 10:40:67
  TRACK 471 AUDIO
    TITLE "0:"
    INDEX 01 10:43:44
  TRACK 472 AUDIO
    TITLE "11:cjc171_03236"
    INDEX 01 10:44:47
  TRACK 473 AUDIO
    TITLE "0:"
    INDEX 01 10:45:68
  TRACK 474 AUDIO
    TITLE "12:cjc171_03237"
    INDEX 01 10:46:32
  TRACK 475 AUDIO
    TITLE "0:"
    INDEX 01 10:47:63
  TRACK 476 AUDIO
    TITLE "13:cjc171_03238"
    INDEX 01 10:48:63
  TRACK 477 AUDIO
    TITLE "0:"
    INDEX 01 10:51:08
  TRACK 478 AUDIO
    TITLE "14:cjc171_03239"
    INDEX 01 10:51:49
  TRACK 479 AUDIO
    TITLE "0:"
    INDEX 01 10:54:10
  TRACK 480 AUDIO
    TITLE "15:cjc171_03240"
    INDEX 01 10:54:42
  TRACK 481 AUDIO
    TITLE "0:"
    INDEX 01 10:57:01
  TRACK 482 AUDIO
    TITLE "11:cjc171_03241"
    INDEX 01 10:58:04
  TRACK 483 AUDIO
    TITLE "0:"
    INDEX 01 10:59:25
  TRACK 484 AUDIO
    TITLE "12:cjc171_03242"
    INDEX 01 10:59:66
  TRACK 485 AUDIO
    TITLE "0:"
    INDEX 01 11:01:32
  TRACK 486 AUDIO
    TITLE "13:cjc171_03243"
    INDEX 01 11:02:31
  TRACK 487 AUDIO
    TITLE "0:"
    INDEX 01 11:05:30
  TRACK 488 AUDIO
    TITLE "14:cjc171_03244"
    INDEX 01 11:05:69
  TRACK 489 AUDIO
    TITLE "0:"
    INDEX 01 11:09:02
  TRACK 490 AUDIO
    TITLE "15:cjc171_03245"
    INDEX 01 11:09:34
  TRACK 491 AUDIO
    TITLE "0:"
    INDEX 01 11:12:40
  TRACK 492 AUDIO
    TITLE "11:cjc171_03246"
    INDEX 01 11:13:45
  TRACK 493 AUDIO
    TITLE "0:"
    INDEX 01 11:14:68
  TRACK 494 AUDIO
    TITLE "12:cjc171_03247"
    INDEX 01 11:15:30
  TRACK 495 AUDIO
    TITLE "0:"
    INDEX 01 11:17:55
  TRACK 496 AUDIO
    TITLE "13:cjc171_03248"
    INDEX 01 11:18:54
  TRACK 497 AUDIO
    TITLE "0:"
    INDEX 01 11:21:46
  TRACK 498 AUDIO
    TITLE "14:cjc171_03249"
    INDEX 01 11:22:13
  TRACK 499 AUDIO
    TITLE "0:"
    INDEX 01 11:24:70
  TRACK 500 AUDIO
    TITLE "15:cjc171_03250"
    INDEX 01 11:25:27
  TRACK 501 AUDIO
    TITLE "0:"
    INDEX 01 11:28:11
  TRACK 502 AUDIO
    TITLE "11:cjc171_03251"
    INDEX 01 11:29:19
  TRACK 503 AUDIO
    TITLE "0:"
    INDEX 01 11:30:36
  TRACK 504 AUDIO
    TITLE "12:cjc171_03252"
    INDEX 01 11:30:75
  TRACK 505 AUDIO
    TITLE "0:"
    INDEX 01 11:32:37
  TRACK 506 AUDIO
    TITLE "13:cjc171_03253"
    INDEX 01 11:33:36
  TRACK 507 AUDIO
    TITLE "0:"
    INDEX 01 11:36:05
  TRACK 508 AUDIO
    TITLE "14:cjc171_03254"
    INDEX 01 11:36:44
  TRACK 509 AUDIO
    TITLE "0:"
    INDEX 01 11:39:27
  TRACK 510 AUDIO
    TITLE "15:cjc171_03255"
    INDEX 01 11:39:60
  TRACK 511 AUDIO
    TITLE "0:"
    INDEX 01 11:42:43
  TRACK 512 AUDIO
    TITLE "11:cjc171_03256"
    INDEX 01 11:43:52
  TRACK 513 AUDIO
    TITLE "0:"
    INDEX 01 11:44:73
  TRACK 514 AUDIO
    TITLE "12:cjc171_03257"
    INDEX 01 11:45:29
  TRACK 515 AUDIO
    TITLE "0:"
    INDEX 01 11:47:22
  TRACK 516 AUDIO
    TITLE "13:cjc171_03258"
    INDEX 01 11:48:18
  TRACK 517 AUDIO
    TITLE "0:"
    INDEX 01 11:50:44
  TRACK 518 AUDIO
    TITLE "14:cjc171_03259"
    INDEX 01 11:50:74
  TRACK 519 AUDIO
    TITLE "0:"
    INDEX 01 11:52:67
  TRACK 520 AUDIO
    TITLE "15:cjc171_03260"
    INDEX 01 11:53:11
  TRACK 521 AUDIO
    TITLE "0:"
    INDEX 01 11:55:02
  TRACK 522 AUDIO
    TITLE "11:cjc171_03261"
    INDEX 01 11:56:06
  TRACK 523 AUDIO
    TITLE "0:"
    INDEX 01 11:57:42
  TRACK 524 AUDIO
    TITLE "12:cjc171_03262"
    INDEX 01 11:58:03
  TRACK 525 AUDIO
    TITLE "0:"
    INDEX 01 12:00:03
  TRACK 526 AUDIO
    TITLE "13:cjc171_03263"
    INDEX 01 12:01:03
  TRACK 527 AUDIO
    TITLE "0:"
    INDEX 01 12:02:69
  TRACK 528 AUDIO
    TITLE "14:cjc171_03264"
    INDEX 01 12:03:29
  TRACK 529 AUDIO
    TITLE "0:"
    INDEX 01 12:05:42
  TRACK 530 AUDIO
    TITLE "15:cjc171_03265"
    INDEX 01 12:05:69
  TRACK 531 AUDIO
    TITLE "0:"
    INDEX 01 12:08:07
  TRACK 532 AUDIO
    TITLE "11:cjc171_03266"
    INDEX 01 12:09:12
  TRACK 533 AUDIO
    TITLE "0:"
    INDEX 01 12:10:35
  TRACK 534 AUDIO
    TITLE "12:cjc171_03267"
    INDEX 01 12:10:72
  TRACK 535 AUDIO
    TITLE "0:"
    INDEX 01 12:12:48
  TRACK 536 AUDIO
    TITLE "13:cjc171_03268"
    INDEX 01 12:13:47
  TRACK 537 AUDIO
    TITLE "0:"
    INDEX 01 12:16:01
  TRACK 538 AUDIO
    TITLE "14:cjc171_03269"
    INDEX 01 12:16:32
  TRACK 539 AUDIO
    TITLE "0:"
    INDEX 01 12:18:64
  TRACK 540 AUDIO
    TITLE "15:cjc171_03270"
    INDEX 01 12:19:13
  TRACK 541 AUDIO
    TITLE "0:"
    INDEX 01 12:21:35
  TRACK 542 AUDIO
    TITLE "11:cjc171_03271"
    INDEX 01 12:22:50
  TRACK 543 AUDIO
    TITLE "0:"
    INDEX 01 12:23:65
  TRACK 544 AUDIO
    TITLE "12:cjc171_03272"
    INDEX 01 12:24:20
  TRACK 545 AUDIO
    TITLE "0:"
    INDEX 01 12:25:66
  TRACK 546 AUDIO
    TITLE "13:cjc171_03273"
    INDEX 01 12:26:64
  TRACK 547 AUDIO
    TITLE "0:"
    INDEX 01 12:29:03
  TRACK 548 AUDIO
    TITLE "14:cjc171_03274"
    INDEX 01 12:29:34
  TRACK 549 AUDIO
    TITLE "0:"
    INDEX 01 12:31:37
  TRACK 550 AUDIO
    TITLE "15:cjc171_03275"
    INDEX 01 12:31:57
  TRACK 551 AUDIO
    TITLE "0:"
    INDEX 01 12:33:52
  TRACK 552 AUDIO
    TITLE "11:cjc171_03276"
    INDEX 01 12:34:59
  TRACK 553 AUDIO
    TITLE "0:"
    INDEX 01 12:35:59
  TRACK 554 AUDIO
    TITLE "12:cjc171_03277"
    INDEX 01 12:36:23
  TRACK 555 AUDIO
    TITLE "0:"
    INDEX 01 12:37:46
  TRACK 556 AUDIO
    TITLE "13:cjc171_03278"
    INDEX 01 12:38:47
  TRACK 557 AUDIO
    TITLE "0:"
    INDEX 01 12:41:20
  TRACK 558 AUDIO
    TITLE "14:cjc171_03279"
    INDEX 01 12:41:51
  TRACK 559 AUDIO
    TITLE "0:"
    INDEX 01 12:45:06
  TRACK 560 AUDIO
    TITLE "15:cjc171_03280"
    INDEX 01 12:45:34
  TRACK 561 AUDIO
    TITLE "0:"
    INDEX 01 12:48:65
  TRACK 562 AUDIO
    TITLE "11:cjc171_03281"
    INDEX 01 12:49:69
  TRACK 563 AUDIO
    TITLE "0:"
    INDEX 01 12:51:09
  TRACK 564 AUDIO
    TITLE "12:cjc171_03282"
    INDEX 01 12:51:48
  TRACK 565 AUDIO
    TITLE "0:"
    INDEX 01 12:52:49
  TRACK 566 AUDIO
    TITLE "13:cjc171_03283"
    INDEX 01 12:53:47
  TRACK 567 AUDIO
    TITLE "0:"
    INDEX 01 12:55:16
  TRACK 568 AUDIO
    TITLE "14:cjc171_03284"
    INDEX 01 12:55:55
  TRACK 569 AUDIO
    TITLE "0:"
    INDEX 01 12:57:39
  TRACK 570 AUDIO
    TITLE "15:cjc171_03285"
    INDEX 01 12:57:70
  TRACK 571 AUDIO
    TITLE "0:"
    INDEX 01 12:59:53
  TRACK 572 AUDIO
    TITLE "11:cjc171_03286"
    INDEX 01 13:00:60
  TRACK 573 AUDIO
    TITLE "0:"
    INDEX 01 13:02:16
  TRACK 574 AUDIO
    TITLE "12:cjc171_03287"
    INDEX 01 13:02:57
  TRACK 575 AUDIO
    TITLE "0:"
    INDEX 01 13:05:11
  TRACK 576 AUDIO
    TITLE "13:cjc171_03288"
    INDEX 01 13:06:06
  TRACK 577 AUDIO
    TITLE "0:"
    INDEX 01 13:08:23
  TRACK 578 AUDIO
    TITLE "14:cjc171_03289"
    INDEX 01 13:08:62
  TRACK 579 AUDIO
    TITLE "0:"
    INDEX 01 13:11:29
  TRACK 580 AUDIO
    TITLE "15:cjc171_03290"
    INDEX 01 13:11:60
  TRACK 581 AUDIO
    TITLE "0:"
    INDEX 01 13:14:29
  TRACK 582 AUDIO
    TITLE "11:cjc171_03291"
    INDEX 01 13:15:35
  TRACK 583 AUDIO
    TITLE "0:"
    INDEX 01 13:16:61
  TRACK 584 AUDIO
    TITLE "12:cjc171_03292"
    INDEX 01 13:17:26
  TRACK 585 AUDIO
    TITLE "0:"
    INDEX 01 13:20:01
  TRACK 586 AUDIO
    TITLE "13:cjc171_03293"
    INDEX 01 13:20:73
  TRACK 587 AUDIO
    TITLE "0:"
    INDEX 01 13:24:16
  TRACK 588 AUDIO
    TITLE "14:cjc171_03294"
    INDEX 01 13:24:55
  TRACK 589 AUDIO
    TITLE "0:"
    INDEX 01 13:27:65
  TRACK 590 AUDIO
    TITLE "15:cjc171_03295"
    INDEX 01 13:28:16
  TRACK 591 AUDIO
    TITLE "0:"
    INDEX 01 13:31:28
  TRACK 592 AUDIO
    TITLE "11:cjc171_03296"
    INDEX 01 13:32:29
  TRACK 593 AUDIO
    TITLE "0:"
    INDEX 01 13:33:44
  TRACK 594 AUDIO
    TITLE "12:cjc171_03297"
    INDEX 01 13:34:08
  TRACK 595 AUDIO
    TITLE "0:"
    INDEX 01 13:37:30
  TRACK 596 AUDIO
    TITLE "13:cjc171_03298"
    INDEX 01 13:38:30
  TRACK 597 AUDIO
    TITLE "0:"
    INDEX 01 13:40:27
  TRACK 598 AUDIO
    TITLE "14:cjc171_03299"
    INDEX 01 13:40:66
  TRACK 599 AUDIO
    TITLE "0:"
    INDEX 01 13:43:33
  TRACK 600 AUDIO
    TITLE "15:cjc171_03300"
    INDEX 01 13:43:64
  TRACK 601 AUDIO
    TITLE "0:"
    INDEX 01 13:46:31
  TRACK 602 AUDIO
    TITLE "11:cjc171_03301"
    INDEX 01 13:47:39
  TRACK 603 AUDIO
    TITLE "0:"
    INDEX 01 13:48:60
  TRACK 604 AUDIO
    TITLE "12:cjc171_03302"
    INDEX 01 13:49:24
  TRACK 605 AUDIO
    TITLE "0:"
    INDEX 01 13:50:39
  TRACK 606 AUDIO
    TITLE "13:cjc171_03303"
    INDEX 01 13:51:36
  TRACK 607 AUDIO
    TITLE "0:"
    INDEX 01 13:53:16
  TRACK 608 AUDIO
    TITLE "14:cjc171_03304"
    INDEX 01 13:53:57
  TRACK 609 AUDIO
    TITLE "0:"
    INDEX 01 13:55:56
  TRACK 610 AUDIO
    TITLE "15:cjc171_03305"
    INDEX 01 13:56:10
  TRACK 611 AUDIO
    TITLE "0:"
    INDEX 01 13:58:07
  TRACK 612 AUDIO
    TITLE "11:cjc171_03306"
    INDEX 01 13:59:12
  TRACK 613 AUDIO
    TITLE "0:"
    INDEX 01 14:00:27
  TRACK 614 AUDIO
    TITLE "12:cjc171_03307"
    INDEX 01 14:00:67
  TRACK 615 AUDIO
    TITLE "0:"
    INDEX 01 14:02:38
  TRACK 616 AUDIO
    TITLE "13:cjc171_03308"
    INDEX 01 14:03:39
  TRACK 617 AUDIO
    TITLE "0:"
    INDEX 01 14:06:03
  TRACK 618 AUDIO
    TITLE "14:cjc171_03309"
    INDEX 01 14:06:38
  TRACK 619 AUDIO
    TITLE "0:"
    INDEX 01 14:08:48
  TRACK 620 AUDIO
    TITLE "15:cjc171_03310"
    INDEX 01 14:09:03
  TRACK 621 AUDIO
    TITLE "0:"
    INDEX 01 14:11:16
  TRACK 622 AUDIO
    TITLE "11:cjc171_03311"
    INDEX 01 14:12:19
  TRACK 623 AUDIO
    TITLE "0:"
    INDEX 01 14:13:54
  TRACK 624 AUDIO
    TITLE "12:cjc171_03312"
    INDEX 01 14:14:18
  TRACK 625 AUDIO
    TITLE "0:"
    INDEX 01 14:16:54
  TRACK 626 AUDIO
    TITLE "13:cjc171_03313"
    INDEX 01 14:17:51
  TRACK 627 AUDIO
    TITLE "0:"
    INDEX 01 14:19:50
  TRACK 628 AUDIO
    TITLE "14:cjc171_03314"
    INDEX 01 14:20:14
  TRACK 629 AUDIO
    TITLE "0:"
    INDEX 01 14:22:23
  TRACK 630 AUDIO
    TITLE "15:cjc171_03315"
    INDEX 01 14:22:55
  TRACK 631 AUDIO
    TITLE "0:"
    INDEX 01 14:24:59
  TRACK 632 AUDIO
    TITLE "11:cjc171_03316"
    INDEX 01 14:25:65
  TRACK 633 AUDIO
    TITLE "0:"
    INDEX 01 14:27:13
  TRACK 634 AUDIO
    TITLE "12:cjc171_03317"
    INDEX 01 14:27:52
  TRACK 635 AUDIO
    TITLE "0:"
    INDEX 01 14:29:70
  TRACK 636 AUDIO
    TITLE "13:cjc171_03318"
    INDEX 01 14:30:72
  TRACK 637 AUDIO
    TITLE "0:"
    INDEX 01 14:32:43
  TRACK 638 AUDIO
    TITLE "14:cjc171_03319"
    INDEX 01 14:33:07
  TRACK 639 AUDIO
    TITLE "0:"
    INDEX 01 14:35:14
  TRACK 640 AUDIO
    TITLE "15:cjc171_03320"
    INDEX 01 14:35:45
  TRACK 641 AUDIO
    TITLE "0:"
    INDEX 01 14:37:52
  TRACK 642 AUDIO
    TITLE "11:cjc171_03321"
    INDEX 01 14:38:59
  TRACK 643 AUDIO
    TITLE "0:"
    INDEX 01 14:39:75
  TRACK 644 AUDIO
    TITLE "12:cjc171_03322"
    INDEX 01 14:40:39
  TRACK 645 AUDIO
    TITLE "0:"
    INDEX 01 14:43:08
  TRACK 646 AUDIO
    TITLE "13:cjc171_03323"
    INDEX 01 14:44:07
  TRACK 647 AUDIO
    TITLE "0:"
    INDEX 01 14:46:20
  TRACK 648 AUDIO
    TITLE "14:cjc171_03324"
    INDEX 01 14:46:59
  TRACK 649 AUDIO
    TITLE "0:"
    INDEX 01 14:48:75
  TRACK 650 AUDIO
    TITLE "15:cjc171_03325"
    INDEX 01 14:49:30
  TRACK 651 AUDIO
    TITLE "0:"
    INDEX 01 14:51:44
  TRACK 652 AUDIO
    TITLE "11:cjc171_03326"
    INDEX 01 14:52:50
  TRACK 653 AUDIO
    TITLE "0:"
    INDEX 01 14:53:67
  TRACK 654 AUDIO
    TITLE "12:cjc171_03327"
    INDEX 01 14:54:33
  TRACK 655 AUDIO
    TITLE "0:"
    INDEX 01 14:56:51
  TRACK 656 AUDIO
    TITLE "13:cjc171_03328"
    INDEX 01 14:57:53
  TRACK 657 AUDIO
    TITLE "0:"
    INDEX 01 15:00:26
  TRACK 658 AUDIO
    TITLE "14:cjc171_03329"
    INDEX 01 15:00:65
  TRACK 659 AUDIO
    TITLE "0:"
    INDEX 01 15:03:12
  TRACK 660 AUDIO
    TITLE "15:cjc171_03330"
    INDEX 01 15:03:42
  TRACK 661 AUDIO
    TITLE "0:"
    INDEX 01 15:05:64
  TRACK 662 AUDIO
    TITLE "11:cjc171_03331"
    INDEX 01 15:06:69
  TRACK 663 AUDIO
    TITLE "0:"
    INDEX 01 15:08:08
  TRACK 664 AUDIO
    TITLE "12:cjc171_03332"
    INDEX 01 15:08:47
  TRACK 665 AUDIO
    TITLE "0:"
    INDEX 01 15:10:38
  TRACK 666 AUDIO
    TITLE "13:cjc171_03333"
    INDEX 01 15:11:37
  TRACK 667 AUDIO
    TITLE "0:"
    INDEX 01 15:13:34
  TRACK 668 AUDIO
    TITLE "14:cjc171_03334"
    INDEX 01 15:13:75
  TRACK 669 AUDIO
    TITLE "0:"
    INDEX 01 15:15:63
  TRACK 670 AUDIO
    TITLE "15:cjc171_03335"
    INDEX 01 15:16:17
  TRACK 671 AUDIO
    TITLE "0:"
    INDEX 01 15:18:04
  TRACK 672 AUDIO
    TITLE "11:cjc171_03336"
    INDEX 01 15:19:09
  TRACK 673 AUDIO
    TITLE "0:"
    INDEX 01 15:20:30
  TRACK 674 AUDIO
    TITLE "12:cjc171_03337"
    INDEX 01 15:20:70
  TRACK 675 AUDIO
    TITLE "0:"
    INDEX 01 15:23:23
  TRACK 676 AUDIO
    TITLE "13:cjc171_03338"
    INDEX 01 15:24:22
  TRACK 677 AUDIO
    TITLE "0:"
    INDEX 01 15:26:15
  TRACK 678 AUDIO
    TITLE "14:cjc171_03339"
    INDEX 01 15:26:55
  TRACK 679 AUDIO
    TITLE "0:"
    INDEX 01 15:28:40
  TRACK 680 AUDIO
    TITLE "15:cjc171_03340"
    INDEX 01 15:28:69
  TRACK 681 AUDIO
    TITLE "0:"
    INDEX 01 15:30:54
  TRACK 682 AUDIO
    TITLE "11:cjc171_03341"
    INDEX 01 15:31:60
  TRACK 683 AUDIO
    TITLE "0:"
    INDEX 01 15:33:13
  TRACK 684 AUDIO
    TITLE "12:cjc171_03342"
    INDEX 01 15:33:55
  TRACK 685 AUDIO
    TITLE "0:"
    INDEX 01 15:36:04
  TRACK 686 AUDIO
    TITLE "13:cjc171_03343"
    INDEX 01 15:37:05
  TRACK 687 AUDIO
    TITLE "0:"
    INDEX 01 15:39:26
  TRACK 688 AUDIO
    TITLE "14:cjc171_03344"
    INDEX 01 15:39:65
  TRACK 689 AUDIO
    TITLE "0:"
    INDEX 01 15:42:65
  TRACK 690 AUDIO
    TITLE "15:cjc171_03345"
    INDEX 01 15:43:18
  TRACK 691 AUDIO
    TITLE "0:"
    INDEX 01 15:46:18
  TRACK 692 AUDIO
    TITLE "11:cjc171_03346"
    INDEX 01 15:47:19
  TRACK 693 AUDIO
    TITLE "0:"
    INDEX 01 15:48:72
  TRACK 694 AUDIO
    TITLE "12:cjc171_03347"
    INDEX 01 15:49:36
  TRACK 695 AUDIO
    TITLE "0:"
    INDEX 01 15:50:55
  TRACK 696 AUDIO
    TITLE "13:cjc171_03348"
    INDEX 01 15:51:52
  TRACK 697 AUDIO
    TITLE "0:"
    INDEX 01 15:53:26
  TRACK 698 AUDIO
    TITLE "14:cjc171_03349"
    INDEX 01 15:53:65
  TRACK 699 AUDIO
    TITLE "0:"
    INDEX 01 15:56:18
  TRACK 700 AUDIO
    TITLE "15:cjc171_03350"
    INDEX 01 15:56:48
  TRACK 701 AUDIO
    TITLE "0:"
    INDEX 01 15:58:74
  TRACK 702 AUDIO
    TITLE "11:cjc171_03351"
    INDEX 01 16:00:04
  TRACK 703 AUDIO
    TITLE "0:"
    INDEX 01 16:01:45
  TRACK 704 AUDIO
    TITLE "12:cjc171_03352"
    INDEX 01 16:02:13
  TRACK 705 AUDIO
    TITLE "0:"
    INDEX 01 16:04:20
  TRACK 706 AUDIO
    TITLE "13:cjc171_03353"
    INDEX 01 16:05:19
  TRACK 707 AUDIO
    TITLE "0:"
    INDEX 01 16:07:28
  TRACK 708 AUDIO
    TITLE "14:cjc171_03354"
    INDEX 01 16:07:67
  TRACK 709 AUDIO
    TITLE "0:"
    INDEX 01 16:11:06
  TRACK 710 AUDIO
    TITLE "15:cjc171_03355"
    INDEX 01 16:11:39
  TRACK 711 AUDIO
    TITLE "0:"
    INDEX 01 16:14:52
  TRACK 712 AUDIO
    TITLE "11:cjc171_03356"
    INDEX 01 16:15:59
  TRACK 713 AUDIO
    TITLE "0:"
    INDEX 01 16:16:68
  TRACK 714 AUDIO
    TITLE "12:cjc171_03357"
    INDEX 01 16:17:28
  TRACK 715 AUDIO
    TITLE "0:"
    INDEX 01 16:19:02
  TRACK 716 AUDIO
    TITLE "13:cjc171_03358"
    INDEX 01 16:20:03
  TRACK 717 AUDIO
    TITLE "0:"
    INDEX 01 16:22:75
  TRACK 718 AUDIO
    TITLE "14:cjc171_03359"
    INDEX 01 16:23:35
  TRACK 719 AUDIO
    TITLE "0:"
    INDEX 01 16:25:46
  TRACK 720 AUDIO
    TITLE "15:cjc171_03360"
    INDEX 01 16:25:67
  TRACK 721 AUDIO
    TITLE "0:"
    INDEX 01 16:28:03
  TRACK 722 AUDIO
    TITLE "11:cjc171_03361"
    INDEX 01 16:29:06
  TRACK 723 AUDIO
    TITLE "0:"
    INDEX 01 16:30:35
  TRACK 724 AUDIO
    TITLE "12:cjc171_03362"
    INDEX 01 16:30:74
  TRACK 725 AUDIO
    TITLE "0:"
    INDEX 01 16:33:21
  TRACK 726 AUDIO
    TITLE "13:cjc171_03363"
    INDEX 01 16:34:19
  TRACK 727 AUDIO
    TITLE "0:"
    INDEX 01 16:35:42
  TRACK 728 AUDIO
    TITLE "14:cjc171_03364"
    INDEX 01 16:36:06
  TRACK 729 AUDIO
    TITLE "0:"
    INDEX 01 16:38:11
  TRACK 730 AUDIO
    TITLE "15:cjc171_03365"
    INDEX 01 16:38:44
  TRACK 731 AUDIO
    TITLE "0:"
    INDEX 01 16:40:45
  TRACK 732 AUDIO
    TITLE "11:cjc171_03366"
    INDEX 01 16:41:52
  TRACK 733 AUDIO
    TITLE "0:"
    INDEX 01 16:42:71
  TRACK 734 AUDIO
    TITLE "12:cjc171_03367"
    INDEX 01 16:43:39
  TRACK 735 AUDIO
    TITLE "0:"
    INDEX 01 16:45:07
  TRACK 736 AUDIO
    TITLE "13:cjc171_03368"
    INDEX 01 16:46:07
  TRACK 737 AUDIO
    TITLE "0:"
    INDEX 01 16:48:25
  TRACK 738 AUDIO
    TITLE "14:cjc171_03369"
    INDEX 01 16:48:64
  TRACK 739 AUDIO
    TITLE "0:"
    INDEX 01 16:50:61
  TRACK 740 AUDIO
    TITLE "15:cjc171_03370"
    INDEX 01 16:51:17
  TRACK 741 AUDIO
    TITLE "0:"
    INDEX 01 16:53:14
  TRACK 742 AUDIO
    TITLE "11:cjc171_03371"
    INDEX 01 16:54:20
  TRACK 743 AUDIO
    TITLE "0:"
    INDEX 01 16:55:43
  TRACK 744 AUDIO
    TITLE "12:cjc171_03372"
    INDEX 01 16:56:07
  TRACK 745 AUDIO
    TITLE "0:"
    INDEX 01 16:57:49
  TRACK 746 AUDIO
    TITLE "13:cjc171_03373"
    INDEX 01 16:58:47
  TRACK 747 AUDIO
    TITLE "0:"
    INDEX 01 17:00:34
  TRACK 748 AUDIO
    TITLE "14:cjc171_03374"
    INDEX 01 17:00:71
  TRACK 749 AUDIO
    TITLE "0:"
    INDEX 01 17:02:70
  TRACK 750 AUDIO
    TITLE "15:cjc171_03375"
    INDEX 01 17:03:34
  TRACK 751 AUDIO
    TITLE "0:"
    INDEX 01 17:05:41
  TRACK 752 AUDIO
    TITLE "11:cjc171_03376"
    INDEX 01 17:06:42
  TRACK 753 AUDIO
    TITLE "0:"
    INDEX 01 17:07:71
  TRACK 754 AUDIO
    TITLE "12:cjc171_03377"
    INDEX 01 17:08:34
  TRACK 755 AUDIO
    TITLE "0:"
    INDEX 01 17:11:38
  TRACK 756 AUDIO
    TITLE "13:cjc171_03378"
    INDEX 01 17:12:37
  TRACK 757 AUDIO
    TITLE "0:"
    INDEX 01 17:14:75
  TRACK 758 AUDIO
    TITLE "14:cjc171_03379"
    INDEX 01 17:15:39
  TRACK 759 AUDIO
    TITLE "0:"
    INDEX 01 17:17:72
  TRACK 760 AUDIO
    TITLE "15:cjc171_03380"
    INDEX 01 17:18:26
  TRACK 761 AUDIO
    TITLE "0:"
    INDEX 01 17:20:60
  TRACK 762 AUDIO
    TITLE "11:cjc171_03381"
    INDEX 01 17:21:62
  TRACK 763 AUDIO
    TITLE "0:"
    INDEX 01 17:23:10
  TRACK 764 AUDIO
    TITLE "12:cjc171_03382"
    INDEX 01 17:23:45
  TRACK 765 AUDIO
    TITLE "0:"
    INDEX 01 17:26:37
  TRACK 766 AUDIO
    TITLE "13:cjc171_03383"
    INDEX 01 17:27:35
  TRACK 767 AUDIO
    TITLE "0:"
    INDEX 01 17:30:25
  TRACK 768 AUDIO
    TITLE "14:cjc171_03384"
    INDEX 01 17:30:63
  TRACK 769 AUDIO
    TITLE "0:"
    INDEX 01 17:33:34
  TRACK 770 AUDIO
    TITLE "15:cjc171_03385"
    INDEX 01 17:33:67
  TRACK 771 AUDIO
    TITLE "0:"
    INDEX 01 17:36:38
  TRACK 772 AUDIO
    TITLE "11:cjc171_03386"
    INDEX 01 17:37:49
  TRACK 773 AUDIO
    TITLE "0:"
    INDEX 01 17:38:66
  TRACK 774 AUDIO
    TITLE "12:cjc171_03387"
    INDEX 01 17:39:30
  TRACK 775 AUDIO
    TITLE "0:"
    INDEX 01 17:40:61
  TRACK 776 AUDIO
    TITLE "13:cjc171_03388"
    INDEX 01 17:41:55
  TRACK 777 AUDIO
    TITLE "0:"
    INDEX 01 17:44:22
  TRACK 778 AUDIO
    TITLE "14:cjc171_03389"
    INDEX 01 17:44:59
  TRACK 779 AUDIO
    TITLE "0:"
    INDEX 01 17:47:49
  TRACK 780 AUDIO
    TITLE "15:cjc171_03390"
    INDEX 01 17:48:04
  TRACK 781 AUDIO
    TITLE "0:"
    INDEX 01 17:50:69
  TRACK 782 AUDIO
    TITLE "11:cjc171_03391"
    INDEX 01 17:51:75
  TRACK 783 AUDIO
    TITLE "0:"
    INDEX 01 17:53:15
  TRACK 784 AUDIO
    TITLE "12:cjc171_03392"
    INDEX 01 17:53:54
  TRACK 785 AUDIO
    TITLE "0:"
    INDEX 01 17:55:41
  TRACK 786 AUDIO
    TITLE "13:cjc171_03393"
    INDEX 01 17:56:38
  TRACK 787 AUDIO
    TITLE "0:"
    INDEX 01 17:58:73
  TRACK 788 AUDIO
    TITLE "14:cjc171_03394"
    INDEX 01 17:59:37
  TRACK 789 AUDIO
    TITLE "0:"
    INDEX 01 18:01:38
  TRACK 790 AUDIO
    TITLE "15:cjc171_03395"
    INDEX 01 18:01:67
  TRACK 791 AUDIO
    TITLE "0:"
    INDEX 01 18:03:68
  TRACK 792 AUDIO
    TITLE "11:cjc171_03396"
    INDEX 01 18:04:71
  TRACK 793 AUDIO
    TITLE "0:"
    INDEX 01 18:06:31
  TRACK 794 AUDIO
    TITLE "12:cjc171_03397"
    INDEX 01 18:06:72
  TRACK 795 AUDIO
    TITLE "0:"
    INDEX 01 18:08:49
  TRACK 796 AUDIO
    TITLE "13:cjc171_03398"
    INDEX 01 18:09:53
  TRACK 797 AUDIO
    TITLE "0:"
    INDEX 01 18:12:10
  TRACK 798 AUDIO
    TITLE "14:cjc171_03399"
    INDEX 01 18:12:49
  TRACK 799 AUDIO
    TITLE "0:"
    INDEX 01 18:15:69
  TRACK 800 AUDIO
    TITLE "15:cjc171_03400"
    INDEX 01 18:16:25
  TRACK 801 AUDIO
    TITLE "0:"
    INDEX 01 18:19:45
  TRACK 802 AUDIO
    TITLE "11:cjc171_03401"
    INDEX 01 18:20:49
  TRACK 803 AUDIO
    TITLE "0:"
    INDEX 01 18:22:12
  TRACK 804 AUDIO
    TITLE "12:cjc171_03402"
    INDEX 01 18:22:46
  TRACK 805 AUDIO
    TITLE "0:"
    INDEX 01 18:24:13
  TRACK 806 AUDIO
    TITLE "13:cjc171_03403"
    INDEX 01 18:25:09
  TRACK 807 AUDIO
    TITLE "0:"
    INDEX 01 18:27:12
  TRACK 808 AUDIO
    TITLE "14:cjc171_03404"
    INDEX 01 18:27:49
  TRACK 809 AUDIO
    TITLE "0:"
    INDEX 01 18:29:75
  TRACK 810 AUDIO
    TITLE "15:cjc171_03405"
    INDEX 01 18:30:30
  TRACK 811 AUDIO
    TITLE "0:"
    INDEX 01 18:32:56
  TRACK 812 AUDIO
    TITLE "11:cjc171_03406"
    INDEX 01 18:33:59
  TRACK 813 AUDIO
    TITLE "0:"
    INDEX 01 18:35:13
  TRACK 814 AUDIO
    TITLE "12:cjc171_03407"
    INDEX 01 18:35:54
  TRACK 815 AUDIO
    TITLE "0:"
    INDEX 01 18:38:07
  TRACK 816 AUDIO
    TITLE "13:cjc171_03408"
    INDEX 01 18:39:07
  TRACK 817 AUDIO
    TITLE "0:"
    INDEX 01 18:40:49
  TRACK 818 AUDIO
    TITLE "14:cjc171_03409"
    INDEX 01 18:41:16
  TRACK 819 AUDIO
    TITLE "0:"
    INDEX 01 18:43:01
  TRACK 820 AUDIO
    TITLE "15:cjc171_03410"
    INDEX 01 18:43:30
  TRACK 821 AUDIO
    TITLE "0:"
    INDEX 01 18:45:15
  TRACK 822 AUDIO
    TITLE "11:cjc171_03411"
    INDEX 01 18:46:19
  TRACK 823 AUDIO
    TITLE "0:"
    INDEX 01 18:47:46
  TRACK 824 AUDIO
    TITLE "12:cjc171_03412"
    INDEX 01 18:48:10
  TRACK 825 AUDIO
    TITLE "0:"
    INDEX 01 18:49:48
  TRACK 826 AUDIO
    TITLE "13:cjc171_03413"
    INDEX 01 18:50:50
  TRACK 827 AUDIO
    TITLE "0:"
    INDEX 01 18:53:42
  TRACK 828 AUDIO
    TITLE "14:cjc171_03414"
    INDEX 01 18:54:06
  TRACK 829 AUDIO
    TITLE "0:"
    INDEX 01 18:57:19
  TRACK 830 AUDIO
    TITLE "15:cjc171_03415"
    INDEX 01 18:57:46
  TRACK 831 AUDIO
    TITLE "0:"
    INDEX 01 19:00:58
  TRACK 832 AUDIO
    TITLE "11:cjc171_03416"
    INDEX 01 19:01:61
  TRACK 833 AUDIO
    TITLE "0:"
    INDEX 01 19:03:07
  TRACK 834 AUDIO
    TITLE "12:cjc171_03417"
    INDEX 01 19:03:47
  TRACK 835 AUDIO
    TITLE "0:"
    INDEX 01 19:06:27
  TRACK 836 AUDIO
    TITLE "13:cjc171_03418"
    INDEX 01 19:07:25
  TRACK 837 AUDIO
    TITLE "0:"
    INDEX 01 19:09:06
  TRACK 838 AUDIO
    TITLE "14:cjc171_03419"
    INDEX 01 19:09:45
  TRACK 839 AUDIO
    TITLE "0:"
    INDEX 01 19:11:50
  TRACK 840 AUDIO
    TITLE "15:cjc171_03420"
    INDEX 01 19:12:04
  TRACK 841 AUDIO
    TITLE "0:"
    INDEX 01 19:14:11
  TRACK 842 AUDIO
    TITLE "11:cjc171_03421"
    INDEX 01 19:15:16
  TRACK 843 AUDIO
    TITLE "0:"
    INDEX 01 19:16:37
  TRACK 844 AUDIO
    TITLE "12:cjc171_03422"
    INDEX 01 19:17:02
  TRACK 845 AUDIO
    TITLE "0:"
    INDEX 01 19:18:36
  TRACK 846 AUDIO
    TITLE "13:cjc171_03423"
    INDEX 01 19:19:36
  TRACK 847 AUDIO
    TITLE "0:"
    INDEX 01 19:22:15
  TRACK 848 AUDIO
    TITLE "14:cjc171_03424"
    INDEX 01 19:22:54
  TRACK 849 AUDIO
    TITLE "0:"
    INDEX 01 19:25:19
  TRACK 850 AUDIO
    TITLE "15:cjc171_03425"
    INDEX 01 19:25:46
  TRACK 851 AUDIO
    TITLE "0:"
    INDEX 01 19:28:11
  TRACK 852 AUDIO
    TITLE "11:cjc171_03426"
    INDEX 01 19:29:15
  TRACK 853 AUDIO
    TITLE "0:"
    INDEX 01 19:30:30
  TRACK 854 AUDIO
    TITLE "12:cjc171_03427"
    INDEX 01 19:30:69
  TRACK 855 AUDIO
    TITLE "0:"
    INDEX 01 19:33:14
  TRACK 856 AUDIO
    TITLE "13:cjc171_03428"
    INDEX 01 19:34:16
  TRACK 857 AUDIO
    TITLE "0:"
    INDEX 01 19:36:13
  TRACK 858 AUDIO
    TITLE "14:cjc171_03429"
    INDEX 01 19:36:52
  TRACK 859 AUDIO
    TITLE "0:"
    INDEX 01 19:38:43
  TRACK 860 AUDIO
    TITLE "15:cjc171_03430"
    INDEX 01 19:38:72
  TRACK 861 AUDIO
    TITLE "0:"
    INDEX 01 19:40:63
  TRACK 862 AUDIO
    TITLE "11:cjc171_03431"
    INDEX 01 19:41:67
  TRACK 863 AUDIO
    TITLE "0:"
    INDEX 01 19:43:07
  TRACK 864 AUDIO
    TITLE "12:cjc171_03432"
    INDEX 01 19:43:46
  TRACK 865 AUDIO
    TITLE "0:"
    INDEX 01 19:44:75
  TRACK 866 AUDIO
    TITLE "13:cjc171_03433"
    INDEX 01 19:45:69
  TRACK 867 AUDIO
    TITLE "0:"
    INDEX 01 19:48:59
  TRACK 868 AUDIO
    TITLE "14:cjc171_03434"
    INDEX 01 19:49:25
  TRACK 869 AUDIO
    TITLE "0:"
    INDEX 01 19:52:10
  TRACK 870 AUDIO
    TITLE "15:cjc171_03435"
    INDEX 01 19:52:39
  TRACK 871 AUDIO
    TITLE "0:"
    INDEX 01 19:55:24
  TRACK 872 AUDIO
    TITLE "11:cjc171_03436"
    INDEX 01 19:56:29
  TRACK 873 AUDIO
    TITLE "0:"
    INDEX 01 19:57:56
  TRACK 874 AUDIO
    TITLE "12:cjc171_03437"
    INDEX 01 19:58:22
  TRACK 875 AUDIO
    TITLE "0:"
    INDEX 01 20:00:39
  TRACK 876 AUDIO
    TITLE "13:cjc171_03438"
    INDEX 01 20:01:40
  TRACK 877 AUDIO
    TITLE "0:"
    INDEX 01 20:03:55
  TRACK 878 AUDIO
    TITLE "14:cjc171_03439"
    INDEX 01 20:04:21
  TRACK 879 AUDIO
    TITLE "0:"
    INDEX 01 20:06:22
  TRACK 880 AUDIO
    TITLE "15:cjc171_03440"
    INDEX 01 20:06:49
  TRACK 881 AUDIO
    TITLE "0:"
    INDEX 01 20:08:50
  TRACK 882 AUDIO
    TITLE "11:cjc171_03441"
    INDEX 01 20:09:55
  TRACK 883 AUDIO
    TITLE "0:"
    INDEX 01 20:10:74
  TRACK 884 AUDIO
    TITLE "12:cjc171_03442"
    INDEX 01 20:11:37
  TRACK 885 AUDIO
    TITLE "0:"
    INDEX 01 20:13:71
  TRACK 886 AUDIO
    TITLE "13:cjc171_03443"
    INDEX 01 20:14:70
  TRACK 887 AUDIO
    TITLE "0:"
    INDEX 01 20:17:39
  TRACK 888 AUDIO
    TITLE "14:cjc171_03444"
    INDEX 01 20:18:07
  TRACK 889 AUDIO
    TITLE "0:"
    INDEX 01 20:20:22
  TRACK 890 AUDIO
    TITLE "15:cjc171_03445"
    INDEX 01 20:20:53
  TRACK 891 AUDIO
    TITLE "0:"
    INDEX 01 20:22:72
  TRACK 892 AUDIO
    TITLE "11:cjc171_03446"
    INDEX 01 20:23:75
  TRACK 893 AUDIO
    TITLE "0:"
    INDEX 01 20:25:27
  TRACK 894 AUDIO
    TITLE "12:cjc171_03447"
    INDEX 01 20:25:68
  TRACK 895 AUDIO
    TITLE "0:"
    INDEX 01 20:28:70
  TRACK 896 AUDIO
    TITLE "13:cjc171_03448"
    INDEX 01 20:29:66
  TRACK 897 AUDIO
    TITLE "0:"
    INDEX 01 20:31:39
  TRACK 898 AUDIO
    TITLE "14:cjc171_03449"
    INDEX 01 20:32:03
  TRACK 899 AUDIO
    TITLE "0:"
    INDEX 01 20:34:02
  TRACK 900 AUDIO
    TITLE "15:cjc171_03450"
    INDEX 01 20:34:34
  TRACK 901 AUDIO
    TITLE "0:"
    INDEX 01 20:36:33
  TRACK 902 AUDIO
    TITLE "11:cjc171_03451"
    INDEX 01 20:37:42
  TRACK 903 AUDIO
    TITLE "0:"
    INDEX 01 20:38:59
  TRACK 904 AUDIO
    TITLE "12:cjc171_03452"
    INDEX 01 20:39:23
  TRACK 905 AUDIO
    TITLE "0:"
    INDEX 01 20:41:28
  TRACK 906 AUDIO
    TITLE "13:cjc171_03453"
    INDEX 01 20:42:27
  TRACK 907 AUDIO
    TITLE "0:"
    INDEX 01 20:44:09
  TRACK 908 AUDIO
    TITLE "14:cjc171_03454"
    INDEX 01 20:44:50
  TRACK 909 AUDIO
    TITLE "0:"
    INDEX 01 20:46:55
  TRACK 910 AUDIO
    TITLE "15:cjc171_03455"
    INDEX 01 20:47:11
  TRACK 911 AUDIO
    TITLE "0:"
    INDEX 01 20:49:14
  TRACK 912 AUDIO
    TITLE "11:cjc171_03456"
    INDEX 01 20:50:19
  TRACK 913 AUDIO
    TITLE "0:"
    INDEX 01 20:51:38
  TRACK 914 AUDIO
    TITLE "12:cjc171_03457"
    INDEX 01 20:52:02
  TRACK 915 AUDIO
    TITLE "0:"
    INDEX 01 20:54:15
  TRACK 916 AUDIO
    TITLE "13:cjc171_03458"
    INDEX 01 20:55:14
  TRACK 917 AUDIO
    TITLE "0:"
    INDEX 01 20:56:67
  TRACK 918 AUDIO
    TITLE "14:cjc171_03459"
    INDEX 01 20:57:31
  TRACK 919 AUDIO
    TITLE "0:"
    INDEX 01 20:59:43
  TRACK 920 AUDIO
    TITLE "15:cjc171_03460"
    INDEX 01 20:59:71
  TRACK 921 AUDIO
    TITLE "0:"
    INDEX 01 21:02:08
  TRACK 922 AUDIO
    TITLE "11:cjc171_03461"
    INDEX 01 21:03:08
  TRACK 923 AUDIO
    TITLE "0:"
    INDEX 01 21:04:25
  TRACK 924 AUDIO
    TITLE "12:cjc171_03462"
    INDEX 01 21:04:62
  TRACK 925 AUDIO
    TITLE "0:"
    INDEX 01 21:07:35
  TRACK 926 AUDIO
    TITLE "13:cjc171_03463"
    INDEX 01 21:08:33
  TRACK 927 AUDIO
    TITLE "0:"
    INDEX 01 21:11:17
  TRACK 928 AUDIO
    TITLE "14:cjc171_03464"
    INDEX 01 21:11:54
  TRACK 929 AUDIO
    TITLE "0:"
    INDEX 01 21:13:73
  TRACK 930 AUDIO
    TITLE "15:cjc171_03465"
    INDEX 01 21:14:25
  TRACK 931 AUDIO
    TITLE "0:"
    INDEX 01 21:16:46
  TRACK 932 AUDIO
    TITLE "11:cjc171_03466"
    INDEX 01 21:17:51
  TRACK 933 AUDIO
    TITLE "0:"
    INDEX 01 21:19:07
  TRACK 934 AUDIO
    TITLE "12:cjc171_03467"
    INDEX 01 21:19:46
  TRACK 935 AUDIO
    TITLE "0:"
    INDEX 01 21:21:49
  TRACK 936 AUDIO
    TITLE "13:cjc171_03468"
    INDEX 01 21:22:44
  TRACK 937 AUDIO
    TITLE "0:"
    INDEX 01 21:25:13
  TRACK 938 AUDIO
    TITLE "14:cjc171_03469"
    INDEX 01 21:25:53
  TRACK 939 AUDIO
    TITLE "0:"
    INDEX 01 21:28:45
  TRACK 940 AUDIO
    TITLE "15:cjc171_03470"
    INDEX 01 21:29:01
  TRACK 941 AUDIO
    TITLE "0:"
    INDEX 01 21:31:69
  TRACK 942 AUDIO
    TITLE "11:cjc171_03471"
    INDEX 01 21:32:74
  TRACK 943 AUDIO
    TITLE "0:"
    INDEX 01 21:34:24
  TRACK 944 AUDIO
    TITLE "12:cjc171_03472"
    INDEX 01 21:34:63
  TRACK 945 AUDIO
    TITLE "0:"
    INDEX 01 21:36:25
  TRACK 946 AUDIO
    TITLE "13:cjc171_03473"
    INDEX 01 21:37:24
  TRACK 947 AUDIO
    TITLE "0:"
    INDEX 01 21:39:51
  TRACK 948 AUDIO
    TITLE "14:cjc171_03474"
    INDEX 01 21:40:15
  TRACK 949 AUDIO
    TITLE "0:"
    INDEX 01 21:42:57
  TRACK 950 AUDIO
    TITLE "15:cjc171_03475"
    INDEX 01 21:43:11
  TRACK 951 AUDIO
    TITLE "0:"
    INDEX 01 21:45:51
  TRACK 952 AUDIO
    TITLE "11:cjc171_03476"
    INDEX 01 21:46:57
  TRACK 953 AUDIO
    TITLE "0:"
    INDEX 01 21:47:72
  TRACK 954 AUDIO
    TITLE "12:cjc171_03477"
    INDEX 01 21:48:36
  TRACK 955 AUDIO
    TITLE "0:"
    INDEX 01 21:49:47
  TRACK 956 AUDIO
    TITLE "13:cjc171_03478"
    INDEX 01 21:50:47
  TRACK 957 AUDIO
    TITLE "0:"
    INDEX 01 21:53:10
  TRACK 958 AUDIO
    TITLE "14:cjc171_03479"
    INDEX 01 21:53:49
  TRACK 959 AUDIO
    TITLE "0:"
    INDEX 01 21:56:04
  TRACK 960 AUDIO
    TITLE "15:cjc171_03480"
    INDEX 01 21:56:34
  TRACK 961 AUDIO
    TITLE "0:"
    INDEX 01 21:58:64
  TRACK 962 AUDIO
    TITLE "11:cjc171_03481"
    INDEX 01 21:59:67
  TRACK 963 AUDIO
    TITLE "0:"
    INDEX 01 22:01:15
  TRACK 964 AUDIO
    TITLE "12:cjc171_03482"
    INDEX 01 22:01:54
  TRACK 965 AUDIO
    TITLE "0:"
    INDEX 01 22:03:04
  TRACK 966 AUDIO
    TITLE "13:cjc171_03483"
    INDEX 01 22:04:02
  TRACK 967 AUDIO
    TITLE "0:"
    INDEX 01 22:06:22
  TRACK 968 AUDIO
    TITLE "14:cjc171_03484"
    INDEX 01 22:06:63
  TRACK 969 AUDIO
    TITLE "0:"
    INDEX 01 22:09:66
  TRACK 970 AUDIO
    TITLE "15:cjc171_03485"
    INDEX 01 22:10:20
  TRACK 971 AUDIO
    TITLE "0:"
    INDEX 01 22:13:20
  TRACK 972 AUDIO
    TITLE "11:cjc171_03486"
    INDEX 01 22:14:24
  TRACK 973 AUDIO
    TITLE "0:"
    INDEX 01 22:15:64
  TRACK 974 AUDIO
    TITLE "12:cjc171_03487"
    INDEX 01 22:16:21
  TRACK 975 AUDIO
    TITLE "0:"
    INDEX 01 22:18:25
  TRACK 976 AUDIO
    TITLE "13:cjc171_03488"
    INDEX 01 22:19:27
  TRACK 977 AUDIO
    TITLE "0:"
    INDEX 01 22:21:22
  TRACK 978 AUDIO
    TITLE "14:cjc171_03489"
    INDEX 01 22:21:59
  TRACK 979 AUDIO
    TITLE "0:"
    INDEX 01 22:24:12
  TRACK 980 AUDIO
    TITLE "15:cjc171_03490"
    INDEX 01 22:24:40
  TRACK 981 AUDIO
    TITLE "0:"
    INDEX 01 22:26:66
  TRACK 982 AUDIO
    TITLE "11:cjc171_03491"
    INDEX 01 22:27:71
  TRACK 983 AUDIO
    TITLE "0:"
    INDEX 01 22:29:13
  TRACK 984 AUDIO
    TITLE "12:cjc171_03492"
    INDEX 01 22:29:51
  TRACK 985 AUDIO
    TITLE "0:"
    INDEX 01 22:31:16
  TRACK 986 AUDIO
    TITLE "13:cjc171_03493"
    INDEX 01 22:32:16
  TRACK 987 AUDIO
    TITLE "0:"
    INDEX 01 22:35:22
  TRACK 988 AUDIO
    TITLE "14:cjc171_03494"
    INDEX 01 22:35:59
  TRACK 989 AUDIO
    TITLE "0:"
    INDEX 01 22:38:06
  TRACK 990 AUDIO
    TITLE "15:cjc171_03495"
    INDEX 01 22:38:34
  TRACK 991 AUDIO
    TITLE "0:"
    INDEX 01 22:40:54
  TRACK 992 AUDIO
    TITLE "11:cjc171_03496"
    INDEX 01 22:41:58
  TRACK 993 AUDIO
    TITLE "0:"
    INDEX 01 22:43:04
  TRACK 994 AUDIO
    TITLE "12:cjc171_03497"
    INDEX 01 22:43:39
  TRACK 995 AUDIO
    TITLE "0:"
    INDEX 01 22:44:74
  TRACK 996 AUDIO
    TITLE "13:cjc171_03498"
    INDEX 01 22:45:71
  TRACK 997 AUDIO
    TITLE "0:"
    INDEX 01 22:48:26
  TRACK 998 AUDIO
    TITLE "14:cjc171_03499"
    INDEX 01 22:48:60
  TRACK 999 AUDIO
    TITLE "0:"
    INDEX 01 22:51:19
  TRACK 1000 AUDIO
    TITLE "15:cjc171_03500"
    INDEX 01 22:51:42
  TRACK 1001 AUDIO
    TITLE "0:"
    INDEX 01 22:54:02
